<?xml version="1.0" encoding="utf-8"?>
<!-- Generator: Adobe Illustrator 16.0.0, SVG Export Plug-In . SVG Version: 6.00 Build 0)  -->
<!DOCTYPE svg PUBLIC "-//W3C//DTD SVG 1.1//EN" "http://www.w3.org/Graphics/SVG/1.1/DTD/svg11.dtd">
<svg version="1.1" id="Layer_1" xmlns="http://www.w3.org/2000/svg" xmlns:xlink="http://www.w3.org/1999/xlink" x="0px" y="0px"
	 width="41.684px" height="41.684px" viewBox="0 0 41.684 41.684" enable-background="new 0 0 41.684 41.684" xml:space="preserve">
<g>
	<g>
		<g>
			<path fill="#FDB813" d="M20.85,6.715c0.002,0,0.004,0,0.008,0c5.551,0,10.34,3.338,12.561,8.141
				c2.447-1.52,4.738-2.408,6.266-2.893C36.344,4.9,29.168-0.002,20.852,0h-0.004C12.516,0.004,5.328,4.932,2.004,12.02
				c1.525,0.484,3.814,1.371,6.264,2.891C10.475,10.08,15.277,6.717,20.85,6.715z"/>
			<path fill="#FDB813" d="M34.879,23.094c-0.123,0.053-0.238,0.111-0.361,0.168c-1.025,6.002-5.773,10.707-11.736,11.557
				c-0.465,0.066-0.934,0.107-1.41,0.125c-0.17,0.008-0.338,0.027-0.51,0.027c-0.002,0-0.002,0-0.004,0
				c-0.174,0-0.344-0.02-0.518-0.027c-0.477-0.018-0.945-0.059-1.408-0.125c-5.938-0.844-10.674-5.514-11.727-11.48
				c-0.135-0.063-0.264-0.131-0.402-0.191c-2.023-0.857-4.299-1.428-6.762-1.705C0.359,32.66,9.568,41.684,20.854,41.684
				c0.002,0,0.002,0,0.002,0c0.004,0,0.006,0,0.008,0c11.305-0.006,20.521-9.059,20.809-20.301
				C39.195,21.656,36.91,22.232,34.879,23.094z"/>
		</g>
		<g>
			<path fill="#74060E" d="M19.02,34.184c0.373,0.055,0.766,0.082,1.158,0.104C18.35,24.18,12.914,18.561,8,15.494
				c-2.375-1.482-4.625-2.377-6.277-2.893C0.629,15.113,0.014,17.881,0,20.789c2.668,0.289,5.01,0.904,7.045,1.768
				c6.172,2.617,9.613,7.402,11.514,11.539C18.713,34.123,18.863,34.162,19.02,34.184z"/>
		</g>
		<path fill="#74060E" d="M39.961,12.545c-1.652,0.518-3.902,1.41-6.279,2.895c-4.924,3.072-10.371,8.707-12.188,18.852
			c0.406-0.021,0.811-0.051,1.199-0.107c0.135-0.018,0.266-0.051,0.4-0.072c1.895-4.152,5.336-8.979,11.545-11.609
			c2.033-0.863,4.377-1.479,7.045-1.768C41.668,17.824,41.055,15.057,39.961,12.545z"/>
	</g>
</g>
</svg>
