<?xml version="1.0" encoding="utf-8"?>
<!-- Generator: Adobe Illustrator 16.0.0, SVG Export Plug-In . SVG Version: 6.00 Build 0)  -->
<!DOCTYPE svg PUBLIC "-//W3C//DTD SVG 1.1//EN" "http://www.w3.org/Graphics/SVG/1.1/DTD/svg11.dtd">
<svg version="1.1" id="Layer_1" xmlns="http://www.w3.org/2000/svg" xmlns:xlink="http://www.w3.org/1999/xlink" x="0px" y="0px"
	 width="212.623px" height="41.684px" viewBox="0 0 212.623 41.684" enable-background="new 0 0 212.623 41.684"
	 xml:space="preserve">
<g>
	<g>
		<path fill="#414042" d="M66.488,9.66h5.887v23.459h-5.887v-2.48C65.34,31.732,64.186,32.52,63.031,33
			c-1.156,0.484-2.41,0.723-3.76,0.723c-3.027,0-5.648-1.174-7.859-3.525c-2.211-2.35-3.316-5.271-3.316-8.766
			c0-3.621,1.068-6.588,3.209-8.904c2.139-2.313,4.738-3.471,7.795-3.471c1.408,0,2.729,0.266,3.963,0.797s2.377,1.33,3.426,2.395
			V9.66z M60.301,14.49c-1.82,0-3.332,0.643-4.535,1.93s-1.807,2.936-1.807,4.949c0,2.025,0.613,3.693,1.838,5.002
			c1.227,1.309,2.732,1.961,4.523,1.961c1.85,0,3.383-0.643,4.6-1.93c1.217-1.285,1.826-2.971,1.826-5.057
			c0-2.039-0.609-3.693-1.826-4.959C63.703,15.123,62.162,14.49,60.301,14.49z"/>
		<path fill="#414042" d="M84.17,9.66v2.588c1.064-1.064,2.213-1.863,3.449-2.395s2.559-0.797,3.967-0.797
			c3.063,0,5.664,1.158,7.807,3.471c2.143,2.316,3.213,5.283,3.213,8.904c0,3.494-1.107,6.416-3.32,8.766
			c-2.215,2.352-4.838,3.525-7.871,3.525c-1.352,0-2.609-0.238-3.773-0.723c-1.164-0.48-2.32-1.268-3.471-2.361v11.064h-5.844V9.66
			H84.17z M90.357,14.49c-1.854,0-3.393,0.633-4.613,1.896c-1.223,1.266-1.832,2.92-1.832,4.959c0,2.086,0.609,3.771,1.832,5.057
			c1.221,1.287,2.76,1.93,4.613,1.93c1.797,0,3.311-0.652,4.539-1.961c1.23-1.309,1.844-2.977,1.844-5.002
			c0-2.014-0.604-3.662-1.811-4.949C93.721,15.133,92.197,14.49,90.357,14.49z"/>
		<path fill="#414042" d="M113.322,9.66v2.588c1.064-1.064,2.213-1.863,3.449-2.395c1.238-0.531,2.559-0.797,3.969-0.797
			c3.063,0,5.662,1.158,7.805,3.471c2.143,2.316,3.215,5.283,3.215,8.904c0,3.494-1.109,6.416-3.322,8.766
			c-2.213,2.352-4.836,3.525-7.869,3.525c-1.352,0-2.609-0.238-3.773-0.723c-1.166-0.48-2.322-1.268-3.473-2.361v11.064h-5.844V9.66
			H113.322z M119.512,14.49c-1.855,0-3.395,0.633-4.615,1.896c-1.223,1.266-1.832,2.92-1.832,4.959c0,2.086,0.609,3.771,1.832,5.057
			c1.221,1.287,2.76,1.93,4.615,1.93c1.795,0,3.309-0.652,4.539-1.961c1.229-1.309,1.844-2.977,1.844-5.002
			c0-2.014-0.604-3.662-1.813-4.949C122.875,15.133,121.35,14.49,119.512,14.49z"/>
		<path fill="#BCBEC0" d="M133.287,9.66h5.998l5.928,13.844l5.912-13.844h5.969l-9.984,23.459h-3.816L133.287,9.66z"/>
		<path fill="#BCBEC0" d="M164.246,0c1.031,0,1.916,0.373,2.654,1.121s1.107,1.652,1.107,2.717c0,1.051-0.365,1.943-1.096,2.684
			c-0.732,0.742-1.605,1.111-2.623,1.111c-1.047,0-1.939-0.377-2.678-1.131c-0.738-0.756-1.107-1.672-1.107-2.75
			c0-1.035,0.365-1.92,1.098-2.652C162.332,0.367,163.213,0,164.246,0z M161.303,9.66h5.887v23.459h-5.887V9.66z"/>
		<path fill="#BCBEC0" d="M174.832,1.014h5.887V9.66h3.492v5.066h-3.492v18.393h-5.887V14.727h-3.02V9.66h3.02V1.014z"/>
		<path fill="#BCBEC0" d="M187.756,9.66h6.016l6.094,14.721L206.59,9.66h6.033L197.93,41.703h-6.08l4.824-10.334L187.756,9.66z"/>
		<g>
			<path fill="#FDB813" d="M20.85,6.715c0.002,0,0.004,0,0.008,0c5.551,0,10.34,3.338,12.561,8.141
				c2.447-1.52,4.738-2.408,6.266-2.893C36.344,4.9,29.168-0.002,20.852,0h-0.004C12.516,0.004,5.328,4.932,2.004,12.02
				c1.525,0.484,3.814,1.371,6.264,2.891C10.475,10.08,15.277,6.717,20.85,6.715z"/>
			<path fill="#FDB813" d="M34.879,23.094c-0.123,0.053-0.238,0.111-0.361,0.168c-1.025,6.002-5.773,10.707-11.736,11.557
				c-0.465,0.066-0.934,0.107-1.41,0.125c-0.17,0.008-0.338,0.027-0.51,0.027c-0.002,0-0.002,0-0.004,0
				c-0.174,0-0.344-0.02-0.518-0.027c-0.477-0.018-0.945-0.059-1.408-0.125c-5.938-0.844-10.674-5.514-11.727-11.48
				c-0.135-0.063-0.264-0.131-0.402-0.191c-2.023-0.857-4.299-1.428-6.762-1.705C0.359,32.66,9.568,41.684,20.854,41.684
				c0.002,0,0.002,0,0.002,0c0.004,0,0.006,0,0.008,0c11.305-0.006,20.521-9.059,20.809-20.301
				C39.195,21.656,36.91,22.232,34.879,23.094z"/>
		</g>
		<g>
			<path fill="#74060E" d="M19.02,34.184c0.373,0.055,0.766,0.082,1.158,0.104C18.35,24.18,12.914,18.561,8,15.494
				c-2.375-1.482-4.625-2.377-6.277-2.893C0.629,15.113,0.014,17.881,0,20.789c2.668,0.289,5.01,0.904,7.045,1.768
				c6.172,2.617,9.613,7.402,11.514,11.539C18.713,34.123,18.863,34.162,19.02,34.184z"/>
		</g>
		<path fill="#74060E" d="M39.961,12.545c-1.652,0.518-3.902,1.41-6.279,2.895c-4.924,3.072-10.371,8.707-12.188,18.852
			c0.406-0.021,0.811-0.051,1.199-0.107c0.135-0.018,0.266-0.051,0.4-0.072c1.895-4.152,5.336-8.979,11.545-11.609
			c2.033-0.863,4.377-1.479,7.045-1.768C41.668,17.824,41.055,15.057,39.961,12.545z"/>
	</g>
</g>
</svg>
