<?xml version="1.0" encoding="UTF-8" standalone="no"?>
<!DOCTYPE svg PUBLIC "-//W3C//DTD SVG 1.1//EN"
"http://www.w3.org/Graphics/SVG/1.1/DTD/svg11.dtd">


<!-- Page 1 -->
<svg x="0" y="0" width="97" height="97" viewBox="0 0 97 97" version="1.1" xmlns="http://www.w3.org/2000/svg" xmlns:xlink="http://www.w3.org/1999/xlink"
style="display: block;margin-left: auto;margin-right: auto;">
<defs>

<style type="text/css"><![CDATA[

.g0_1{
fill: #FFFFFF;
}
.g1_1{
fill: #FDB813;
}

]]></style>

</defs>
<path d="M0,0
L0,97
L97,97
L97,0 Z " 
fill="transparent" stroke="none" />
<path d="M44.7,14.3l1.6,3.8c1.1,2.5,2,5.1,2.6,7.7c.6,-2.6,1.5,-5.2,2.6,-7.7l1.6,-3.8l4.1,.4c4.3,.6,8.4,1.7,12.3,3.2c-.6,-2,-1.6,-3.9,-2.7,-5.5C62.8,6.7,56.3,3.1,48.9,3.1C41.5,3.1,35,6.7,31,12.4c-1.2,1.6,-2.1,3.5,-2.8,5.5c4,-1.5,8.1,-2.6,12.4,-3.2Z" class="g0_1" />
<path d="M54.1,61.7C51.7,57.6,50,53.3,48.9,48.8c-1.1,4.5,-2.8,8.8,-5.2,12.9C40.6,67.1,36.5,71.8,31.8,75.5c3.3,5.7,7.5,10.8,12.3,15.2c2.4,-11,6.6,-19.8,11.5,-26.6c-.5,-.8,-1,-1.6,-1.5,-2.4Z" class="g0_1" />
<path d="M38.9,59C46,46.7,46.4,32.3,41.3,20.2c-5.5,.7,-10.7,2.4,-15.6,5c-1.1,.6,-2.3,1.3,-3.4,2C21.2,28,20,28.8,19,29.7C15,32.9,11.6,36.9,8.9,41.6C1.8,53.9,1.4,68.2,6.6,80.3C13,79.6,19.2,77.4,24.7,73.9c.7,-.5,1.5,-1.1,2.3,-1.6c.7,-.6,1.5,-1.2,2.2,-1.8C33,67.4,36.3,63.5,38.9,59Z" class="g0_1" />
<path d="M73.6,47.2c5.6,-3.4,10.8,-5.6,14.6,-6.8C85.6,36.3,82.4,32.7,78.8,29.7c-1,-.9,-2.2,-1.7,-3.3,-2.5c-1.1,-.7,-2.3,-1.4,-3.4,-2C67.2,22.6,62,20.9,56.5,20.2C51.4,32.3,51.7,46.7,58.8,59c.2,.2,.3,.3,.4,.5C64,54.1,69.1,50.1,73.6,47.2Z" class="g0_1" />
<path d="M76,75.5c4.7,2.5,9.9,4.2,15.2,4.8c1.5,-3.4,2.5,-7,3.1,-10.8c-4.9,.7,-9.4,1.8,-13.4,3.5c-1.7,.7,-3.4,1.6,-4.9,2.5Z" class="g0_1" />
<path d="M90.8,45.3c-3.7,1.2,-8.9,3.2,-14.3,6.6c-4.7,3,-9.6,7,-14,12.3c-1.2,1.4,-2.4,2.9,-3.4,4.6C54.5,75.5,50.8,84,48.9,94.7c.9,0,1.8,-.1,2.7,-.2c.3,-.1,.6,-.1,.9,-.2c.7,-1.5,1.5,-3.1,2.4,-4.7c2.6,-4.6,6,-9.2,10.6,-13.3c1.6,-1.4,3.3,-2.8,5.3,-4c2.4,-1.7,5,-3.1,7.9,-4.4c4.6,-1.9,10,-3.3,16,-4C94.7,57.3,93.3,51,90.8,45.3Z" class="g1_1" />

</svg>
