<?xml version="1.0" encoding="UTF-8" standalone="no"?>
<!DOCTYPE svg PUBLIC "-//W3C//DTD SVG 1.1//EN"
"http://www.w3.org/Graphics/SVG/1.1/DTD/svg11.dtd">


<!-- Page 1 -->
<svg x="0" y="0" width="97" height="97" viewBox="0 0 97 97" version="1.1" xmlns="http://www.w3.org/2000/svg" xmlns:xlink="http://www.w3.org/1999/xlink"
style="display: block;margin-left: auto;margin-right: auto;">
<defs>

<style type="text/css"><![CDATA[

.g0_1{
fill: #FFFFFF;
}
.g1_1{
fill: #FDB813;
}

]]></style>

</defs>
<path d="M0,0
L0,97
L97,97
L97,0 Z " 
fill="transparent" stroke="none" />
<path d="M11.9,31.2H82.4V46.9c2.9,-1.3,5.4,-2.2,7.3,-2.8l1.6,-.5V9.8C91.3,7,89,4.8,86.2,4.8h-17v9.1c0,2.5,-2,4.5,-4.4,4.5c-2.4,0,-4.4,-2,-4.4,-4.5V4.8H33.9v9.1c0,2.5,-1.9,4.5,-4.4,4.5c-2.4,0,-4.4,-2,-4.4,-4.5V4.8H8.1c-2.8,0,-5,2.2,-5,5V88c0,2.7,2.2,5,5,5H48.7l.1,-.9c.5,-2.8,1.2,-5.4,1.9,-7.9H11.9Z" class="g0_1" />
<path d="M33.9,44.5H25.1v8.8h8.8V44.5Z" class="g0_1" />
<path d="M42.8,53.3h8.8V44.5H42.8v8.8Z" class="g0_1" />
<path d="M25.1,70.9h8.8V62.1H25.1v8.8Z" class="g0_1" />
<path d="M42.8,70.9h8.8V62.1H42.8v8.8Z" class="g0_1" />
<path d="M69.2,44.5H60.4v8.8h8.8V44.5Z" class="g0_1" />
<path d="M91.3,49c0,-.1,-.1,-.1,-.1,-.1c-2.4,.7,-5.4,1.9,-8.8,3.6c-1.2,.7,-2.6,1.4,-3.9,2.3C70,60,60.8,69.1,56,84.2c-.9,2.7,-1.7,5.6,-2.2,8.8c.8,0,1.6,-.1,2.4,-.2c.3,-.1,.5,-.1,.8,-.2c1.3,-2.7,2.9,-5.6,4.9,-8.4C66,78.3,71.9,72.7,80.4,69.1c.7,-.3,1.4,-.5,2,-.8c2.7,-1,5.7,-1.8,8.9,-2.3c1.1,-.2,2.2,-.4,3.4,-.5C94.7,59.6,93.5,54.1,91.3,49Z" class="g1_1" />

</svg>
