<?xml version="1.0" encoding="utf-8"?>
<!-- Generator: Adobe Illustrator 16.0.0, SVG Export Plug-In . SVG Version: 6.00 Build 0)  -->
<!DOCTYPE svg PUBLIC "-//W3C//DTD SVG 1.1//EN" "http://www.w3.org/Graphics/SVG/1.1/DTD/svg11.dtd">
<svg version="1.1" id="Layer_1" xmlns="http://www.w3.org/2000/svg" xmlns:xlink="http://www.w3.org/1999/xlink" x="0px" y="0px"
	 width="64px" height="64px" viewBox="0 0 64 64" enable-background="new 0 0 64 64" xml:space="preserve">
<g>
	<path opacity="0.8" d="M140.995,9.328l1.062,2.487c0.705,1.66,1.261,3.35,1.679,5.06c0.418-1.71,0.973-3.399,1.68-5.06l1.061-2.487
		l2.686,0.325c2.822,0.342,5.531,1.051,8.09,2.069c-0.439-1.304-1.049-2.526-1.823-3.63C152.843,4.412,148.575,2,143.735,2
		c-4.839,0-9.107,2.41-11.693,6.093c-0.775,1.103-1.384,2.325-1.823,3.63c2.559-1.019,5.267-1.728,8.092-2.069L140.995,9.328z"/>
	<path opacity="0.8" d="M147.13,40.389c-1.549-2.683-2.678-5.517-3.395-8.423c-0.717,2.906-1.846,5.74-3.395,8.423
		c-2.049,3.547-4.695,6.587-7.776,9.047c2.159,3.711,4.869,7.063,8.017,9.945c1.569-7.239,4.329-12.952,7.555-17.425
		C147.796,41.438,147.442,40.931,147.13,40.389z"/>
	<path opacity="0.8" d="M137.223,38.588c4.647-8.046,4.905-17.424,1.521-25.359c-3.557,0.432-7.01,1.541-10.17,3.255
		c-0.765,0.413-1.51,0.86-2.235,1.347c-0.757,0.504-1.492,1.042-2.201,1.623c-2.58,2.112-4.83,4.714-6.598,7.771
		c-4.645,8.049-4.905,17.425-1.521,25.361c4.2-0.51,8.258-1.954,11.854-4.238c0.513-0.326,1.019-0.666,1.51-1.025
		c0.505-0.367,0.998-0.757,1.479-1.16C133.345,44.085,135.511,41.551,137.223,38.588z"/>
	<path opacity="0.8" d="M159.926,30.92c3.649-2.277,7.081-3.665,9.507-4.472c-1.688-2.715-3.747-5.071-6.101-6.996
		c-0.709-0.58-1.446-1.119-2.201-1.622c-0.726-0.486-1.473-0.936-2.235-1.348c-3.16-1.713-6.612-2.822-10.169-3.254
		c-3.384,7.937-3.125,17.313,1.522,25.359c0.078,0.136,0.169,0.257,0.249,0.39C153.601,35.409,156.931,32.79,159.926,30.92z"/>
	<path opacity="0.8" d="M161.459,49.422c3.111,1.661,6.501,2.741,9.992,3.164c0.965-2.26,1.621-4.637,1.977-7.065
		c-3.203,0.409-6.155,1.158-8.765,2.268C163.544,48.264,162.486,48.824,161.459,49.422z"/>
	<path fill="#FDB813" d="M171.169,29.668c-2.455,0.77-5.802,2.101-9.337,4.307c-3.09,1.929-6.316,4.545-9.22,8.05
		c-0.77,0.928-1.513,1.923-2.227,2.983c-2.977,4.403-5.412,9.955-6.67,16.978c0.005,0.004,0.011,0.009,0.017,0.015
		c0.003-0.001,0.004-0.001,0.006-0.001c0.594-0.029,1.188-0.076,1.759-0.155c0.2-0.031,0.393-0.078,0.594-0.113
		c0.464-1.016,0.995-2.059,1.591-3.107c1.682-2.966,3.917-5.99,6.899-8.656c1.056-0.944,2.213-1.839,3.465-2.675
		c1.574-1.051,3.3-2.009,5.211-2.817c3.022-1.284,6.506-2.196,10.474-2.631c0-0.015,0.001-0.029,0.001-0.044
		C173.706,37.494,172.793,33.395,171.169,29.668z"/>
</g>
<g>
	<g opacity="0.8">
		<path d="M203.668,25.711l2.287-2.282l2.244,2.325c0.564,0.584,5.205,5.394,8.742,9.06l0.479,0.497l4.199-4.356
			c8.693-9.016,19.691-20.422,20.266-21.017l2.244-2.326l2.289,2.283l5.846,5.83c1.629-1.689,2.641-2.739,2.779-2.884L244.174,2
			c-0.736,0.762-18.557,19.243-26.754,27.744c-3.117-3.231-10.771-11.166-11.508-11.928l-10.869,10.84
			c0.182,0.188,1.221,1.265,2.779,2.884L203.668,25.711z"/>
		<path d="M244.174,12.133c-0.736,0.762-18.557,19.244-26.754,27.745c-3.117-3.231-10.771-11.167-11.508-11.928l-5.887,5.872
			l-4.982,4.968c0.732,0.76,15.547,16.125,22.326,23.158l0.092-0.506c0.094-0.524,0.201-1.073,0.328-1.676
			c0.111-0.531,0.236-1.081,0.383-1.682c1.023-4.195,2.498-8.053,4.404-11.566c2.736-5.05,6.367-9.384,10.877-12.943
			c1.246-0.985,2.564-1.912,3.92-2.756c0.26-0.162,0.527-0.313,0.791-0.469c1.873-1.113,3.842-2.108,5.883-2.947
			c0.568-0.233,1.127-0.45,1.707-0.661c0.588-0.214,1.164-0.411,1.717-0.585l0.029-0.01l0.107-0.035l2.732-0.873l0.787,1.8
			c2.289-2.374,3.748-3.888,3.916-4.063l-4.98-4.967L244.174,12.133z"/>
	</g>
	<path fill="#FDB813" d="M249.92,32.858c-0.168-0.577-0.354-1.147-0.555-1.711c-0.195-0.55-0.404-1.093-0.631-1.629
		c-0.055-0.13-0.104-0.263-0.158-0.392c-0.047,0.015-0.1,0.033-0.146,0.048c-0.496,0.157-1.029,0.338-1.588,0.542
		c-0.508,0.185-1.035,0.388-1.588,0.614c-1.889,0.778-4.006,1.808-6.197,3.173c-1.197,0.746-2.418,1.595-3.631,2.553
		c-5.602,4.422-11.074,11.247-13.869,21.652c-0.1,0.373-0.205,0.741-0.299,1.124c-0.127,0.52-0.248,1.047-0.361,1.583
		c-0.023,0.108-0.041,0.22-0.064,0.329c-0.084,0.414-0.17,0.829-0.246,1.255c0.453-0.022,0.9-0.06,1.342-0.107
		c0.16-0.018,0.32-0.031,0.477-0.054c0.203-0.031,0.402-0.078,0.607-0.112c0.197-0.432,0.408-0.87,0.629-1.311
		c0.109-0.221,0.236-0.445,0.355-0.668c0.16-0.305,0.314-0.608,0.486-0.915c2.689-4.821,6.84-9.83,13.191-13.272
		c0.09-0.049,0.174-0.1,0.264-0.147c0.824-0.437,1.674-0.855,2.57-1.235c1.475-0.623,3.057-1.157,4.746-1.597
		c0.521-0.136,1.049-0.265,1.588-0.381c0.52-0.111,1.051-0.212,1.588-0.305c0.893-0.155,1.811-0.286,2.756-0.39
		C251.172,38.504,250.725,35.606,249.92,32.858z"/>
</g>
<g>
	<g>
		<path opacity="0.8" d="M8.848,20.452h46.19v10.255c1.85-0.856,3.504-1.46,4.763-1.854l1.013-0.318V6.43
			c0-1.822-1.479-3.3-3.301-3.3H46.374c0,0.012,0.004,0.022,0.004,0.034v5.964c0,1.595-1.292,2.888-2.887,2.888
			c-1.596,0-2.887-1.293-2.887-2.888V3.164c0-0.012,0.003-0.022,0.003-0.034H23.279c0,0.012,0.002,0.022,0.002,0.034v5.964
			c0,1.595-1.291,2.888-2.885,2.888c-1.596,0-2.889-1.293-2.889-2.888V3.164c0-0.012,0.004-0.022,0.004-0.034H6.373
			c-1.823,0-3.299,1.478-3.299,3.3V57.57c0,1.822,1.476,3.3,3.299,3.3h26.546l0.107-0.582c0.328-1.835,0.743-3.561,1.227-5.192
			H8.848V20.452z"/>
		<rect x="17.508" y="29.112" opacity="0.8" width="5.773" height="5.774"/>
		<rect x="29.057" y="29.112" opacity="0.8" width="5.773" height="5.774"/>
		<rect x="17.508" y="40.661" opacity="0.8" width="5.773" height="5.773"/>
		<rect x="29.057" y="40.661" opacity="0.8" width="5.773" height="5.773"/>
		<rect x="40.604" y="29.112" opacity="0.8" width="5.773" height="5.774"/>
		<path fill="#FDB813" d="M60.813,32.06c-0.01-0.02-0.018-0.041-0.026-0.06c-1.578,0.496-3.576,1.256-5.749,2.376
			c-0.84,0.434-1.707,0.917-2.587,1.469C46.92,39.296,40.9,45.2,37.717,55.096c-0.579,1.794-1.073,3.705-1.443,5.774
			c0.538-0.026,1.076-0.068,1.593-0.142c0.177-0.026,0.351-0.068,0.53-0.099c0.818-1.795,1.859-3.681,3.168-5.534
			c2.713-3.838,6.599-7.521,12.157-9.875c0.425-0.181,0.872-0.337,1.316-0.5c1.766-0.647,3.681-1.17,5.775-1.526
			c0.733-0.124,1.484-0.238,2.261-0.323C63.056,39.034,62.247,35.382,60.813,32.06z"/>
	</g>
</g>
<g>
	<path opacity="0.8" d="M464.722,25.963l2.559-23.672h-14.848l2.61,24.148l-20.968-8.402l-4.65,13.054l22.437,3.834l-15.746,18.684
		l9.571,6.56C448.897,43.468,456.864,32.729,464.722,25.963z"/>
	<path opacity="0.8" d="M471.932,61.604l11.585-7.995l-9.494-11.324c-3.444,1.75-6.556,3.96-9.322,6.617L471.932,61.604z"/>
	<path fill="#FDB813" d="M489.274,31.25c-0.127-1.571-0.339-3.118-0.636-4.637c-0.587-3.006-1.484-5.904-2.68-8.648
		c-0.1,0.031-0.21,0.069-0.311,0.103l-0.011-0.03l-0.458,0.185c-1.794,0.593-3.879,1.396-6.141,2.461
		c-1.819,0.857-3.741,1.875-5.711,3.106c-9.409,5.873-19.768,16.399-23.91,34.939c-0.217,0.974-0.422,1.962-0.604,2.98
		c0.814-0.04,1.632-0.105,2.414-0.214c0.27-0.043,0.532-0.105,0.804-0.152c2.315-5.077,5.794-10.652,10.966-15.435
		c2.514-2.325,5.436-4.457,8.817-6.256c1.102-0.587,2.236-1.148,3.438-1.658c4.092-1.736,8.805-2.974,14.172-3.554
		C489.419,33.366,489.36,32.305,489.274,31.25z"/>
</g>
<g>
	<polygon opacity="0.8" points="508.57,51.201 511.813,51.201 511.813,28.307 536.086,17.749 536.086,51.201 539.33,51.201 
		539.33,12.799 508.57,26.182 	"/>
	<path opacity="0.8" d="M544.315,50.226c2.257-11.835,8.929-18.198,14.153-21.46c1.553-0.97,3.189-1.792,4.877-2.48l-20.773-13.487
		v38.402h1.617L544.315,50.226z"/>
	<path opacity="0.8" d="M562.457,41.902c-4.117,1.744-7.369,4.879-9.701,9.299h15.814V40.328c-0.332,0.042-0.674,0.09-1.051,0.152
		C565.68,40.777,563.977,41.255,562.457,41.902z"/>
	<path opacity="0.8" d="M566.766,28.483c-0.009,0.003-0.015,0.006-0.023,0.007l0.035,0.022
		C566.773,28.503,566.769,28.495,566.766,28.483z"/>
	<path fill="#FDB813" d="M561.19,38.916c1.722-0.731,3.657-1.289,5.813-1.639c0.51-0.082,1.028-0.159,1.565-0.217
		c-0.004-1.523-0.171-3.008-0.479-4.444c-0.305-1.422-0.746-2.796-1.313-4.104l-0.035-0.022c-1.73,0.546-4.076,1.478-6.554,3.026
		c-5.144,3.211-10.841,9.094-12.755,19.676l-0.001,0.009c0.888,0,0.606-0.012,1.698-0.012
		C551.121,46.852,554.725,41.656,561.19,38.916z"/>
	<g opacity="0.8">
		<polygon points="515.428,51.201 518.762,51.201 518.762,30.143 515.428,29.262 		"/>
		<polygon points="522.284,51.201 525.618,51.201 525.618,31.956 522.284,31.074 		"/>
		<polygon points="529.14,32.886 529.14,51.201 532.474,51.201 532.474,33.768 		"/>
	</g>
</g>
<g>
	<path opacity="0.8" d="M605.301,15.184l-2.895,1.682v30.27L627.992,62l0.695-0.403l0.021-0.125
		c0.508-2.836,1.217-5.425,2.076-7.786l-2.793,1.622l-19.799-11.504V23.559v-0.001l16.906,9.821V47.84l2.893,1.681l2.895-1.681
		V30.048l-25.582-14.865L605.301,15.184z"/>
	<path opacity="0.8" d="M627.992,8.694l19.799,11.518v13.081c2.125-1.213,4.119-2.094,5.787-2.723V16.742L627.992,2l-16.93,9.836
		l5.762,3.346L627.992,8.694z"/>
	<path fill="#FDB813" d="M656.523,32.722c-0.869,0.272-1.865,0.627-2.945,1.071c-1.678,0.693-3.561,1.611-5.51,2.828
		c-0.092,0.057-0.186,0.122-0.277,0.181c-4.537,2.892-9.365,7.407-12.709,14.386c-1.186,2.477-2.188,5.256-2.92,8.39
		c-0.184,0.786-0.352,1.593-0.5,2.423c0.547-0.026,1.092-0.07,1.617-0.143c0.182-0.028,0.355-0.07,0.537-0.103
		c0.684-1.497,1.521-3.059,2.535-4.611c2.77-4.245,6.887-8.419,13.008-11.015c1.309-0.556,2.719-1.029,4.219-1.42
		c1.641-0.428,3.391-0.758,5.266-0.963C658.826,39.834,657.996,36.107,656.523,32.722z"/>
</g>
<g>
	<path opacity="0.8" d="M366.528,41.235c-0.744-0.602-1.542-1.734-1.55-3.118c-0.021-4.708-0.021-9.476-0.018-14.142
		c-0.006,0.009-0.012,0.017-0.018,0.025c-0.141-0.215-0.244-0.37-0.344-0.525c-0.748-1.152-1.487-2.308-2.252-3.45
		c-0.086-0.13-0.327-0.264-0.466-0.238c-1.606,0.297-3.206,0.625-4.832,0.949c-0.015,0.142-0.028,0.221-0.028,0.298
		c-0.003,3.684-0.006,7.372,0.011,11.055c0.001,0.178,0.142,0.409,0.287,0.526c0.86,0.698,1.747,1.365,2.612,2.057
		c0.133,0.105,0.268,0.283,0.286,0.443c0.236,1.997,0.453,3.998,0.669,5.997c0.229,2.111,0.448,4.222,0.691,6.329
		c0.018,0.152,0.186,0.386,0.316,0.411c2.027,0.4,4.061,0.41,6.092,0.02c0.125-0.023,0.291-0.213,0.313-0.347
		c0.106-0.693,0.174-1.392,0.25-2.089c0.088-0.8,0.178-1.6,0.266-2.399c-0.033-0.025-0.066-0.053-0.1-0.078
		C367.979,42.388,367.245,41.817,366.528,41.235z"/>
	<path opacity="0.8" d="M365.09,17.508c2.604-0.035,4.637-2.205,4.602-4.906c-0.033-2.514-2.197-4.604-4.74-4.581
		c-2.674,0.024-4.785,2.147-4.746,4.768C360.245,15.503,362.361,17.546,365.09,17.508z"/>
	<path opacity="0.8" d="M397.845,19.785c-0.139-0.025-0.379,0.107-0.467,0.237c-0.671,0.996-1.317,2.01-1.972,3.018
		c-0.198,0.305-0.403,0.608-0.637,0.96c-0.001-0.001-0.001-0.001-0.001-0.002l-0.001,2.711c-0.001,2.832,0.003,5.665,0.009,8.499
		c2.814-1.594,5.39-2.566,7.148-3.119l0.787-0.247c-0.012-3.214-0.007-6.428-0.007-9.641c0-0.481,0-0.962,0-1.458
		C401.053,20.414,399.451,20.085,397.845,19.785z"/>
	<path opacity="0.8" d="M394.916,17.508c2.604-0.035,4.638-2.205,4.602-4.906c-0.032-2.514-2.197-4.604-4.74-4.581
		c-2.674,0.024-4.784,2.147-4.745,4.768C390.071,15.503,392.188,17.546,394.916,17.508z"/>
	<path opacity="0.8" d="M390.383,38.149c0.466-0.364,0.928-0.708,1.385-1.029c-0.015-4.618-0.01-9.233-0.01-13.85
		c0-0.72,0-1.442,0-2.185c-1.11-0.223-2.201-0.443-3.289-0.661c-1.34-0.268-2.671-0.53-4.001-0.778
		c-0.018-0.003-0.037-0.005-0.057-0.005c-0.212,0-0.523,0.183-0.645,0.36c-1.006,1.496-1.974,3.016-2.956,4.527
		c-0.298,0.458-0.605,0.911-0.955,1.44c-0.211-0.323-0.365-0.555-0.516-0.788c-1.121-1.727-2.231-3.461-3.378-5.174
		c-0.118-0.177-0.432-0.362-0.644-0.362c-0.02,0-0.038,0.002-0.055,0.005c-1.33,0.246-2.659,0.507-3.992,0.771
		c-1.081,0.215-2.164,0.434-3.256,0.652c-0.021,0.213-0.043,0.331-0.043,0.448c-0.004,5.526-0.01,11.056,0.016,16.583
		c0.002,0.267,0.213,0.613,0.432,0.789c0.259,0.21,0.523,0.414,0.785,0.62c1.041,0.825,2.095,1.634,3.132,2.465
		c0.2,0.157,0.402,0.426,0.431,0.665c0.354,2.996,0.679,5.999,1.004,8.998c0.343,3.163,0.672,6.33,1.035,9.491
		c0.028,0.229,0.277,0.578,0.475,0.617c0.51,0.101,1.02,0.179,1.529,0.245l0.095-0.525C379.025,49.623,384.91,42.425,390.383,38.149
		z"/>
	<path opacity="0.8" d="M380.075,16.231c3.905-0.054,6.956-3.309,6.9-7.36c-0.049-3.77-3.295-6.905-7.108-6.871
		c-4.01,0.037-7.178,3.219-7.119,7.153C372.809,13.224,375.981,16.288,380.075,16.231z"/>
	<path fill="#FDB813" d="M402.826,34.962c-0.992,0.312-2.16,0.735-3.435,1.296c-1.363,0.598-2.846,1.353-4.373,2.306
		c-0.109,0.067-0.219,0.145-0.328,0.215c-1.295,0.828-2.613,1.804-3.91,2.942c-0.841,0.741-1.672,1.547-2.48,2.433
		c-0.588,0.643-1.16,1.335-1.718,2.062c-3.001,3.906-5.506,9.035-6.713,15.785c0.504-0.025,1.007-0.064,1.493-0.131
		c0.167-0.027,0.328-0.066,0.495-0.096c0.911-1.996,2.112-4.112,3.684-6.15c0.532-0.692,1.11-1.372,1.733-2.036
		c0.533-0.57,1.097-1.127,1.701-1.666c1.58-1.411,3.413-2.697,5.528-3.775c0.552-0.28,1.115-0.553,1.706-0.802
		c0.653-0.278,1.335-0.532,2.039-0.766c2.023-0.675,4.259-1.166,6.72-1.435C404.953,41.529,404.187,38.089,402.826,34.962z"/>
</g>
<g>
	<path fill="#FFFFFF" d="M147.283-83.338l1.062,2.487c0.705,1.66,1.261,3.35,1.679,5.06c0.418-1.71,0.973-3.399,1.68-5.06
		l1.061-2.487l2.686,0.325c2.822,0.342,5.531,1.051,8.09,2.069c-0.439-1.304-1.049-2.526-1.823-3.63
		c-2.585-3.681-6.853-6.093-11.692-6.093c-4.839,0-9.107,2.41-11.693,6.093c-0.775,1.103-1.384,2.325-1.823,3.63
		c2.559-1.019,5.267-1.728,8.092-2.069L147.283-83.338z"/>
	<path fill="#FFFFFF" d="M153.418-52.278c-1.549-2.683-2.678-5.517-3.395-8.423c-0.717,2.906-1.846,5.74-3.395,8.423
		c-2.049,3.547-4.695,6.587-7.776,9.047c2.159,3.711,4.869,7.063,8.017,9.945c1.569-7.239,4.329-12.952,7.555-17.425
		C154.084-51.229,153.73-51.736,153.418-52.278z"/>
	<path fill="#FFFFFF" d="M143.511-54.079c4.647-8.046,4.905-17.424,1.521-25.359c-3.557,0.432-7.01,1.541-10.17,3.255
		c-0.765,0.413-1.51,0.86-2.235,1.347c-0.757,0.504-1.492,1.042-2.201,1.623c-2.58,2.112-4.83,4.714-6.598,7.771
		c-4.645,8.049-4.905,17.425-1.521,25.361c4.2-0.51,8.258-1.954,11.854-4.238c0.513-0.326,1.019-0.666,1.51-1.025
		c0.505-0.367,0.998-0.757,1.479-1.16C139.633-48.582,141.799-51.116,143.511-54.079z"/>
	<path fill="#FFFFFF" d="M166.214-61.747c3.649-2.277,7.081-3.665,9.507-4.472c-1.688-2.715-3.747-5.071-6.101-6.996
		c-0.709-0.58-1.446-1.119-2.201-1.622c-0.726-0.486-1.473-0.936-2.235-1.348c-3.16-1.713-6.612-2.822-10.169-3.254
		c-3.384,7.937-3.125,17.313,1.522,25.359c0.078,0.136,0.169,0.257,0.249,0.39C159.889-57.257,163.219-59.876,166.214-61.747z"/>
	<path fill="#FFFFFF" d="M167.747-43.245c3.111,1.661,6.501,2.741,9.992,3.164c0.965-2.26,1.621-4.637,1.977-7.065
		c-3.203,0.409-6.155,1.158-8.765,2.268C169.832-44.403,168.774-43.842,167.747-43.245z"/>
	<path fill="#FDB813" d="M177.457-62.999c-2.455,0.77-5.802,2.101-9.337,4.307c-3.09,1.929-6.316,4.545-9.22,8.05
		c-0.77,0.928-1.513,1.923-2.227,2.983c-2.977,4.403-5.412,9.955-6.67,16.978c0.005,0.004,0.011,0.009,0.017,0.015
		c0.003-0.001,0.004-0.001,0.006-0.001c0.594-0.029,1.188-0.076,1.759-0.155c0.2-0.031,0.393-0.078,0.594-0.113
		c0.464-1.016,0.995-2.059,1.591-3.107c1.682-2.966,3.917-5.99,6.899-8.656c1.056-0.944,2.213-1.839,3.465-2.675
		c1.574-1.051,3.3-2.009,5.211-2.817c3.022-1.284,6.506-2.196,10.474-2.631c0-0.015,0.001-0.029,0.001-0.044
		C179.994-55.172,179.081-59.272,177.457-62.999z"/>
</g>
<g>
	<g>
		<path fill="#FFFFFF" d="M208.124-66.956l2.288-2.282l2.244,2.325c0.564,0.584,5.204,5.394,8.741,9.06l0.479,0.497l4.2-4.356
			c8.693-9.016,19.691-20.422,20.266-21.017l2.244-2.326l2.289,2.283l5.846,5.83c1.629-1.689,2.641-2.739,2.779-2.884l-10.87-10.841
			c-0.735,0.762-18.557,19.243-26.753,27.744c-3.117-3.231-10.772-11.166-11.509-11.928L199.5-64.01
			c0.181,0.188,1.22,1.265,2.779,2.884L208.124-66.956z"/>
		<path fill="#FFFFFF" d="M248.63-80.533c-0.735,0.762-18.557,19.244-26.753,27.745c-3.117-3.231-10.772-11.167-11.509-11.928
			l-5.887,5.872l-4.981,4.968c0.732,0.76,15.546,16.125,22.326,23.158l0.091-0.506c0.094-0.524,0.202-1.073,0.329-1.676
			c0.111-0.531,0.236-1.081,0.383-1.682c1.022-4.195,2.498-8.053,4.403-11.566c2.737-5.05,6.368-9.384,10.878-12.943
			c1.245-0.985,2.564-1.912,3.92-2.756c0.26-0.162,0.527-0.313,0.791-0.469c1.872-1.113,3.842-2.108,5.883-2.947
			c0.567-0.233,1.126-0.45,1.706-0.661c0.588-0.214,1.165-0.411,1.717-0.585l0.03-0.01l0.106-0.035l2.733-0.873l0.786,1.8
			c2.289-2.374,3.748-3.888,3.917-4.063l-4.98-4.967L248.63-80.533z"/>
	</g>
	<path fill="#FDB813" d="M254.377-59.808c-0.169-0.577-0.354-1.147-0.556-1.711c-0.195-0.55-0.404-1.093-0.63-1.629
		c-0.055-0.13-0.104-0.263-0.159-0.392c-0.047,0.015-0.099,0.033-0.146,0.048c-0.496,0.157-1.029,0.338-1.588,0.542
		c-0.508,0.185-1.035,0.388-1.588,0.614c-1.889,0.778-4.006,1.808-6.197,3.173c-1.198,0.746-2.419,1.595-3.632,2.553
		c-5.602,4.422-11.074,11.247-13.868,21.652c-0.101,0.373-0.206,0.741-0.299,1.124c-0.127,0.52-0.248,1.047-0.361,1.583
		c-0.023,0.108-0.042,0.22-0.064,0.329c-0.085,0.414-0.17,0.829-0.246,1.255c0.452-0.022,0.9-0.06,1.342-0.107
		c0.16-0.018,0.32-0.031,0.477-0.054c0.203-0.031,0.402-0.078,0.606-0.112c0.197-0.432,0.408-0.87,0.629-1.311
		c0.11-0.221,0.237-0.445,0.355-0.668c0.161-0.305,0.315-0.608,0.486-0.915c2.69-4.821,6.841-9.83,13.192-13.272
		c0.089-0.049,0.174-0.1,0.264-0.147c0.824-0.437,1.673-0.855,2.57-1.235c1.474-0.623,3.057-1.157,4.746-1.597
		c0.521-0.136,1.048-0.265,1.588-0.381c0.52-0.111,1.051-0.212,1.588-0.305c0.893-0.155,1.81-0.286,2.756-0.39
		C255.628-54.163,255.181-57.06,254.377-59.808z"/>
</g>
<g>
	<g>
		<path fill="#FFFFFF" d="M299.44-72.214h46.19v10.255c1.85-0.856,3.504-1.46,4.763-1.854l1.013-0.318v-22.104
			c0-1.822-1.479-3.3-3.301-3.3h-11.139c0,0.012,0.004,0.022,0.004,0.034v5.964c0,1.595-1.292,2.888-2.887,2.888
			c-1.596,0-2.887-1.293-2.887-2.888v-5.964c0-0.012,0.003-0.022,0.003-0.034h-17.328c0,0.012,0.002,0.022,0.002,0.034v5.964
			c0,1.595-1.291,2.888-2.885,2.888c-1.596,0-2.889-1.293-2.889-2.888v-5.964c0-0.012,0.004-0.022,0.004-0.034h-11.139
			c-1.823,0-3.299,1.478-3.299,3.3v51.141c0,1.822,1.476,3.3,3.299,3.3h26.546l0.107-0.582c0.328-1.835,0.743-3.561,1.227-5.192
			H299.44V-72.214z"/>
		<rect x="308.101" y="-63.554" fill="#FFFFFF" width="5.773" height="5.774"/>
		<rect x="319.649" y="-63.554" fill="#FFFFFF" width="5.773" height="5.774"/>
		<rect x="308.101" y="-52.005" fill="#FFFFFF" width="5.773" height="5.773"/>
		<rect x="319.649" y="-52.005" fill="#FFFFFF" width="5.773" height="5.773"/>
		<rect x="331.197" y="-63.554" fill="#FFFFFF" width="5.773" height="5.774"/>
		<path fill="#FDB813" d="M351.406-60.607c-0.01-0.02-0.018-0.041-0.026-0.06c-1.578,0.496-3.576,1.256-5.749,2.376
			c-0.84,0.434-1.707,0.917-2.587,1.469c-5.531,3.451-11.551,9.355-14.734,19.251c-0.579,1.794-1.073,3.705-1.443,5.774
			c0.538-0.026,1.076-0.068,1.593-0.142c0.177-0.026,0.351-0.068,0.53-0.099c0.818-1.795,1.859-3.681,3.168-5.534
			c2.713-3.838,6.599-7.521,12.157-9.875c0.425-0.181,0.872-0.337,1.316-0.5c1.766-0.647,3.681-1.17,5.775-1.526
			c0.733-0.124,1.484-0.238,2.261-0.323C353.648-53.632,352.84-57.285,351.406-60.607z"/>
	</g>
</g>
<g>
	<path fill="#FFFFFF" d="M470.63-66.704l2.559-23.672h-14.848l2.61,24.148l-20.968-8.402l-4.65,13.054l22.437,3.834l-15.746,18.684
		l9.571,6.56C454.806-49.199,462.772-59.937,470.63-66.704z"/>
	<path fill="#FFFFFF" d="M477.84-31.063l11.585-7.995l-9.494-11.324c-3.444,1.75-6.556,3.96-9.322,6.617L477.84-31.063z"/>
	<path fill="#FDB813" d="M495.183-61.417c-0.127-1.571-0.339-3.118-0.636-4.637c-0.587-3.006-1.484-5.904-2.68-8.648
		c-0.1,0.031-0.21,0.069-0.311,0.103l-0.011-0.03l-0.458,0.185c-1.794,0.593-3.879,1.396-6.141,2.461
		c-1.819,0.857-3.741,1.875-5.711,3.106c-9.409,5.873-19.768,16.399-23.91,34.939c-0.217,0.974-0.422,1.962-0.604,2.98
		c0.814-0.04,1.632-0.105,2.414-0.214c0.27-0.043,0.532-0.105,0.804-0.152c2.315-5.077,5.794-10.652,10.966-15.435
		c2.514-2.325,5.436-4.457,8.817-6.256c1.102-0.587,2.236-1.148,3.438-1.658c4.092-1.736,8.805-2.974,14.172-3.554
		C495.327-59.3,495.269-60.362,495.183-61.417z"/>
</g>
<g>
	<polygon fill="#FFFFFF" points="514.667,-41.465 517.909,-41.465 517.909,-64.359 542.183,-74.918 542.183,-41.465 
		545.427,-41.465 545.427,-79.868 514.667,-66.485 	"/>
	<path fill="#FFFFFF" d="M550.412-42.441c2.257-11.835,8.929-18.198,14.153-21.46c1.553-0.97,3.189-1.792,4.877-2.48l-20.773-13.487
		v38.402h1.617L550.412-42.441z"/>
	<path fill="#FFFFFF" d="M568.554-50.764c-4.117,1.744-7.369,4.879-9.701,9.299h15.814v-10.873c-0.332,0.042-0.674,0.09-1.051,0.152
		C571.776-51.889,570.073-51.412,568.554-50.764z"/>
	<path fill="#FFFFFF" d="M572.862-64.184c-0.009,0.003-0.015,0.006-0.023,0.007l0.035,0.022
		C572.87-64.163,572.865-64.172,572.862-64.184z"/>
	<path fill="#FDB813" d="M567.287-53.75c1.722-0.731,3.657-1.289,5.813-1.639c0.51-0.082,1.028-0.159,1.565-0.217
		c-0.004-1.523-0.171-3.008-0.479-4.444c-0.305-1.422-0.746-2.796-1.313-4.104l-0.035-0.022c-1.73,0.546-4.076,1.478-6.554,3.026
		c-5.144,3.211-10.841,9.094-12.755,19.676l-0.001,0.009c0.888,0,0.606-0.012,1.698-0.012
		C557.218-45.815,560.821-51.01,567.287-53.75z"/>
	<g>
		<polygon fill="#FFFFFF" points="521.524,-41.465 524.858,-41.465 524.858,-62.524 521.524,-63.404 		"/>
		<polygon fill="#FFFFFF" points="528.381,-41.465 531.715,-41.465 531.715,-60.71 528.381,-61.592 		"/>
		<polygon fill="#FFFFFF" points="535.236,-59.78 535.236,-41.465 538.57,-41.465 538.57,-58.899 		"/>
	</g>
</g>
<g>
	<path fill="#FFFFFF" d="M607.313-77.483l-2.894,1.682v30.27l25.586,14.865l0.694-0.403l0.022-0.125
		c0.508-2.836,1.216-5.425,2.075-7.786l-2.792,1.622l-19.799-11.504v-20.245v-0.001l16.905,9.821v14.461l2.894,1.681l2.894-1.681
		v-17.792l-25.582-14.865L607.313-77.483z"/>
	<path fill="#FFFFFF" d="M630.005-83.972l19.799,11.518v13.081c2.124-1.213,4.119-2.094,5.787-2.723v-13.828l-25.586-14.742
		l-16.93,9.836l5.762,3.346L630.005-83.972z"/>
	<path fill="#FDB813" d="M658.536-59.945c-0.87,0.272-1.866,0.627-2.945,1.071c-1.679,0.693-3.562,1.611-5.511,2.828
		c-0.092,0.057-0.185,0.122-0.276,0.181c-4.538,2.892-9.365,7.407-12.709,14.386c-1.186,2.477-2.188,5.256-2.92,8.39
		c-0.184,0.786-0.352,1.593-0.5,2.423c0.546-0.026,1.091-0.07,1.617-0.143c0.181-0.028,0.355-0.07,0.537-0.103
		c0.683-1.497,1.521-3.059,2.534-4.611c2.771-4.245,6.888-8.419,13.008-11.015c1.309-0.556,2.719-1.029,4.22-1.42
		c1.64-0.428,3.39-0.758,5.265-0.963C660.839-52.833,660.009-56.559,658.536-59.945z"/>
</g>
<g>
	<path fill="#FFFFFF" d="M377.831-51.431c-0.744-0.602-1.542-1.734-1.55-3.118c-0.021-4.708-0.021-9.476-0.018-14.142
		c-0.006,0.009-0.012,0.017-0.018,0.025c-0.141-0.215-0.244-0.37-0.344-0.525c-0.748-1.152-1.487-2.308-2.252-3.45
		c-0.086-0.13-0.327-0.264-0.466-0.238c-1.606,0.297-3.206,0.625-4.832,0.949c-0.015,0.142-0.028,0.221-0.028,0.298
		c-0.003,3.684-0.006,7.372,0.011,11.055c0.001,0.178,0.142,0.409,0.287,0.526c0.86,0.698,1.747,1.365,2.612,2.057
		c0.133,0.105,0.268,0.283,0.286,0.443c0.236,1.997,0.453,3.998,0.669,5.997c0.229,2.111,0.448,4.222,0.691,6.329
		c0.018,0.152,0.186,0.386,0.316,0.411c2.027,0.4,4.061,0.41,6.092,0.02c0.125-0.023,0.291-0.213,0.313-0.347
		c0.106-0.693,0.174-1.392,0.25-2.089c0.088-0.8,0.178-1.6,0.266-2.399c-0.033-0.025-0.066-0.053-0.1-0.078
		C379.282-50.279,378.548-50.849,377.831-51.431z"/>
	<path fill="#FFFFFF" d="M376.393-75.159c2.604-0.035,4.637-2.205,4.602-4.906c-0.033-2.514-2.197-4.604-4.74-4.581
		c-2.674,0.024-4.785,2.147-4.746,4.768C371.548-77.164,373.664-75.12,376.393-75.159z"/>
	<path fill="#FFFFFF" d="M409.147-72.881c-0.139-0.025-0.379,0.107-0.467,0.237c-0.671,0.996-1.317,2.01-1.972,3.018
		c-0.198,0.305-0.403,0.608-0.637,0.96c-0.001-0.001-0.001-0.001-0.001-0.002l-0.001,2.711c-0.001,2.832,0.003,5.665,0.009,8.499
		c2.814-1.594,5.39-2.566,7.148-3.119l0.787-0.247c-0.012-3.214-0.007-6.428-0.007-9.641c0-0.481,0-0.962,0-1.458
		C412.355-72.253,410.754-72.581,409.147-72.881z"/>
	<path fill="#FFFFFF" d="M406.219-75.159c2.604-0.035,4.638-2.205,4.602-4.906c-0.032-2.514-2.197-4.604-4.74-4.581
		c-2.674,0.024-4.784,2.147-4.745,4.768C401.374-77.164,403.49-75.12,406.219-75.159z"/>
	<path fill="#FFFFFF" d="M401.686-54.517c0.466-0.364,0.928-0.708,1.385-1.029c-0.015-4.618-0.01-9.233-0.01-13.85
		c0-0.72,0-1.442,0-2.185c-1.11-0.223-2.201-0.443-3.289-0.661c-1.34-0.268-2.671-0.53-4.001-0.778
		c-0.018-0.003-0.037-0.005-0.057-0.005c-0.212,0-0.523,0.183-0.645,0.36c-1.006,1.496-1.974,3.016-2.956,4.527
		c-0.298,0.458-0.605,0.911-0.955,1.44c-0.211-0.323-0.365-0.555-0.516-0.788c-1.121-1.727-2.231-3.461-3.378-5.174
		c-0.118-0.177-0.432-0.362-0.644-0.362c-0.02,0-0.038,0.002-0.055,0.005c-1.33,0.246-2.659,0.507-3.992,0.771
		c-1.081,0.215-2.164,0.434-3.256,0.652c-0.021,0.213-0.043,0.331-0.043,0.448c-0.004,5.526-0.01,11.056,0.016,16.583
		c0.002,0.267,0.213,0.613,0.432,0.789c0.259,0.21,0.523,0.414,0.785,0.62c1.041,0.825,2.095,1.634,3.132,2.465
		c0.2,0.157,0.402,0.426,0.431,0.665c0.354,2.996,0.679,5.999,1.004,8.998c0.343,3.163,0.672,6.33,1.035,9.491
		c0.028,0.229,0.277,0.578,0.475,0.617c0.51,0.101,1.02,0.179,1.529,0.245l0.095-0.525
		C390.328-43.043,396.213-50.242,401.686-54.517z"/>
	<path fill="#FFFFFF" d="M391.378-76.436c3.905-0.054,6.956-3.309,6.9-7.36c-0.049-3.77-3.295-6.905-7.108-6.871
		c-4.01,0.037-7.178,3.219-7.119,7.153C384.111-79.443,387.284-76.378,391.378-76.436z"/>
	<path fill="#FDB813" d="M414.129-57.705c-0.992,0.312-2.16,0.735-3.435,1.296c-1.363,0.598-2.846,1.353-4.373,2.306
		c-0.109,0.067-0.219,0.145-0.328,0.215c-1.295,0.828-2.613,1.804-3.91,2.942c-0.841,0.741-1.672,1.547-2.48,2.433
		c-0.588,0.643-1.16,1.335-1.718,2.062c-3.001,3.906-5.506,9.035-6.713,15.785c0.504-0.025,1.007-0.064,1.493-0.131
		c0.167-0.027,0.328-0.066,0.495-0.096c0.911-1.996,2.112-4.112,3.684-6.15c0.532-0.692,1.11-1.372,1.733-2.036
		c0.533-0.57,1.097-1.127,1.701-1.666c1.58-1.411,3.413-2.697,5.528-3.775c0.552-0.28,1.115-0.553,1.706-0.802
		c0.653-0.278,1.335-0.532,2.039-0.766c2.023-0.675,4.259-1.166,6.72-1.435C416.256-51.137,415.489-54.578,414.129-57.705z"/>
</g>
<line fill="none" stroke="#231F20" stroke-width="0.25" stroke-miterlimit="10" x1="32" y1="89.834" x2="32" y2="73.333"/>
</svg>
