<?xml version="1.0" encoding="UTF-8" standalone="no"?>
<!DOCTYPE svg PUBLIC "-//W3C//DTD SVG 1.1//EN"
"http://www.w3.org/Graphics/SVG/1.1/DTD/svg11.dtd">


<!-- Page 1 -->
<svg x="0" y="0" width="97" height="97" viewBox="0 0 97 97" version="1.1" xmlns="http://www.w3.org/2000/svg" xmlns:xlink="http://www.w3.org/1999/xlink"
style="display: block;margin-left: auto;margin-right: auto;">
<defs>

<style type="text/css"><![CDATA[

.g0_1{
fill: #FFFFFF;
}
.g1_1{
fill: #FDB813;
}

]]></style>

</defs>
<path d="M0,0
L0,97
L97,97
L97,0 Z " 
fill="transparent" stroke="none" />
<path d="M57,39.7L60.9,3.5H38.2l4,36.9L10.2,27.6L3.1,47.5l34.2,5.9l-24,28.5l14.6,10C32.8,66.4,45,50,57,39.7Z" class="g0_1" />
<path d="M68,94.1L85.7,81.9L71.2,64.6c-5.3,2.7,-10,6.1,-14.3,10.1Z" class="g0_1" />
<path d="M94.5,47.7c-.2,-2.4,-.5,-4.7,-1,-7C92.6,36.1,91.3,31.6,89.4,27.4c-.1,.1,-.3,.2,-.4,.2h-.1l-.7,.2c-2.7,.9,-5.9,2.2,-9.3,3.8c-2.8,1.3,-5.8,2.9,-8.8,4.7C55.8,45.3,39.9,61.4,33.6,89.7c-.3,1.5,-.6,3,-.9,4.6c1.2,-.1,2.5,-.2,3.7,-.3c.4,-.1,.8,-.2,1.2,-.3C41.1,86,46.4,77.4,54.3,70.1c3.9,-3.5,8.4,-6.8,13.5,-9.5c1.7,-.9,3.4,-1.8,5.3,-2.6c6.2,-2.6,13.4,-4.5,21.6,-5.4c0,-1.6,-.1,-3.2,-.2,-4.9Z" class="g1_1" />

</svg>
