<?xml version="1.0" encoding="UTF-8" standalone="no"?>
<!DOCTYPE svg PUBLIC "-//W3C//DTD SVG 1.1//EN"
"http://www.w3.org/Graphics/SVG/1.1/DTD/svg11.dtd">


<!-- Page 1 -->
<svg x="0" y="0" width="97" height="97" viewBox="0 0 97 97" version="1.1" xmlns="http://www.w3.org/2000/svg" xmlns:xlink="http://www.w3.org/1999/xlink"
style="display: block;margin-left: auto;margin-right: auto;">
<defs>

<style type="text/css"><![CDATA[

.g0_1{
fill: #FFFFFF;
}
.g1_1{
fill: #FDB813;
}

]]></style>

</defs>
<path d="M0,0
L0,97
L97,97
L97,0 Z " 
fill="transparent" stroke="none" />
<path d="M14.2,23.2L9.8,25.8V72L48.9,94.7l1,-.6l.1,-.2c.7,-4.3,1.8,-8.3,3.1,-11.9l-4.2,2.5L18.6,66.9V36L44.5,51V73.1l4.4,2.6l4.4,-2.6V45.9L14.2,23.2Z" class="g0_1" />
<path d="M48.9,13.3L79.1,30.9v20C82.4,49,85.4,47.7,88,46.7V25.6L48.9,3.1L23,18.1l8.8,5.1Z" class="g0_1" />
<path d="M92.5,50c-1.4,.4,-2.9,.9,-4.5,1.6c-2.6,1.1,-5.5,2.5,-8.5,4.3c-.1,.1,-.2,.2,-.4,.3c-6.9,4.4,-14.3,11.3,-19.4,22C57.9,82,56.4,86.2,55.2,91c-.2,1.2,-.5,2.5,-.7,3.7c.8,0,1.6,-.1,2.5,-.2c.2,0,.5,-.1,.8,-.2c1,-2.2,2.3,-4.6,3.8,-7C65.9,80.8,72.2,74.4,81.5,70.5c2,-.9,4.2,-1.6,6.5,-2.2c2.5,-.6,5.1,-1.2,8,-1.5C96,60.9,94.7,55.2,92.5,50Z" class="g1_1" />

</svg>
