<?xml version="1.0" encoding="UTF-8" standalone="no"?>
<!DOCTYPE svg PUBLIC "-//W3C//DTD SVG 1.1//EN"
"http://www.w3.org/Graphics/SVG/1.1/DTD/svg11.dtd">


<!-- Page 1 -->
<svg x="0" y="0" width="97" height="97" viewBox="0 0 97 97" version="1.1" xmlns="http://www.w3.org/2000/svg" xmlns:xlink="http://www.w3.org/1999/xlink"
style="display: block;margin-left: auto;margin-right: auto;">
<defs>

<style type="text/css"><![CDATA[

.g0_1{
fill: #FFFFFF;
}
.g1_1{
fill: #FDB813;
}

]]></style>

</defs>
<path d="M0,0
L0,97
L97,97
L97,0 Z " 
fill="transparent" stroke="none" />
<path d="M28.5,63c-1.1,-.9,-2.3,-2.7,-2.3,-4.8C26.1,51,26.1,43.8,26.1,36.6c0,0,0,.1,0,.1c-.2,-.4,-.4,-.6,-.5,-.8C24.4,34.1,23.3,32.3,22.1,30.6c-.1,-.2,-.5,-.4,-.7,-.4c-2.4,.5,-4.9,1,-7.4,1.5c0,.2,0,.3,0,.4c0,5.7,0,11.3,0,16.9c0,.3,.2,.7,.5,.8c1.3,1.1,2.6,2.1,4,3.2c.2,.1,.4,.4,.4,.7c.4,3,.7,6.1,1,9.1c.4,3.2,.7,6.5,1.1,9.7c0,.2,.3,.6,.5,.6c3,.6,6.2,.6,9.3,0c.1,0,.4,-.3,.4,-.5c.2,-1,.3,-2.1,.4,-3.2c.2,-1.2,.3,-2.4,.4,-3.6c0,-.1,-.1,-.1,-.1,-.2C30.7,64.8,29.6,63.9,28.5,63Z" class="g0_1" />
<path d="M26.3,26.7c4,0,7.1,-3.3,7.1,-7.4c-.1,-3.9,-3.4,-7.1,-7.3,-7c-4.1,0,-7.3,3.2,-7.2,7.2c0,4.2,3.3,7.3,7.4,7.2Z" class="g0_1" />
<path d="M76.4,30.2c-.2,0,-.6,.2,-.7,.4c-1.1,1.5,-2.1,3.1,-3,4.6c-.4,.5,-.7,.9,-1,1.5v4.1c0,4.3,0,8.7,0,13C76,51.4,79.9,49.9,82.6,49l1.2,-.4c0,-4.9,0,-9.8,0,-14.7V31.7c-2.5,-.5,-5,-1,-7.4,-1.5Z" class="g0_1" />
<path d="M71.9,26.7c4,0,7.1,-3.3,7,-7.4c0,-3.9,-3.3,-7.1,-7.2,-7c-4.1,0,-7.3,3.2,-7.3,7.2c.1,4.2,3.3,7.3,7.5,7.2Z" class="g0_1" />
<path d="M65,58.3c.7,-.6,1.4,-1.1,2.1,-1.6c0,-7,0,-14.1,0,-21.1V32.2c-1.7,-.3,-3.4,-.7,-5,-1C60,30.8,58,30.4,55.9,30c-.4,0,-.8,.3,-1,.6c-1.6,2.2,-3,4.6,-4.5,6.9c-.5,.7,-1,1.4,-1.5,2.2c-.3,-.5,-.6,-.9,-.8,-1.2C46.4,35.8,44.7,33.2,42.9,30.6C42.8,30.3,42.3,30,42,30q-.1,0,-.1,0c-2.1,.4,-4.1,.8,-6.1,1.2c-1.7,.3,-3.3,.7,-5,1c0,.3,-.1,.5,-.1,.7c0,8.4,0,16.9,.1,25.3c0,.4,.3,1,.6,1.2c.4,.3,.8,.7,1.2,1c1.6,1.2,3.2,2.5,4.8,3.7c.3,.3,.6,.7,.7,1c.5,4.6,1,9.2,1.5,13.8c.5,4.8,1,9.7,1.6,14.5c0,.3,.4,.9,.7,.9c.8,.2,1.6,.3,2.3,.4l.2,-.8C47.6,75.8,56.6,64.8,65,58.3Z" class="g0_1" />
<path d="M49.2,24.8c6,-.1,10.7,-5.1,10.6,-11.2C59.7,7.8,54.7,3,48.9,3.1C42.8,3.1,37.9,8,38,14c.1,6.2,5,10.9,11.2,10.8Z" class="g0_1" />
<path d="M84,53.4c-1.5,.5,-3.3,1.1,-5.3,2c-2,.9,-4.3,2.1,-6.6,3.5c-.2,.1,-.4,.2,-.5,.3c-2,1.3,-4,2.8,-6,4.5c-1.3,1.2,-2.6,2.4,-3.8,3.8c-.9,.9,-1.8,2,-2.6,3.1c-4.6,6,-8.4,13.8,-10.3,24.1c.8,0,1.6,-.1,2.3,-.2c.2,0,.5,-.1,.8,-.1c1.3,-3.1,3.2,-6.3,5.6,-9.4c.8,-1.1,1.7,-2.1,2.6,-3.1c.8,-.9,1.7,-1.8,2.6,-2.6c2.4,-2.1,5.2,-4.1,8.5,-5.7c.8,-.5,1.7,-.9,2.6,-1.3c1,-.4,2,-.8,3.1,-1.1C80.1,70.1,83.5,69.4,87.3,69C87.2,63.4,86.1,58.2,84,53.4Z" class="g1_1" />

</svg>
