<?xml version="1.0" encoding="UTF-8" standalone="no"?>
<!DOCTYPE svg PUBLIC "-//W3C//DTD SVG 1.1//EN"
"http://www.w3.org/Graphics/SVG/1.1/DTD/svg11.dtd">


<!-- Page 1 -->
<svg x="0" y="0" width="97" height="97" viewBox="0 0 97 97" version="1.1" xmlns="http://www.w3.org/2000/svg" xmlns:xlink="http://www.w3.org/1999/xlink"
style="display: block;margin-left: auto;margin-right: auto;">
<defs>

<style type="text/css"><![CDATA[

.g0_1{
fill: #FFFFFF;
}
.g1_1{
fill: #FDB813;
}

]]></style>

</defs>
<path d="M0,0
L0,97
L97,97
L97,0 Z " 
fill="transparent" stroke="none" />
<path d="M16.2,39.3l3.5,-3.5l3.5,3.5c.8,.9,7.9,8.3,13.3,13.9l.7,.7l6.5,-6.6C56.9,33.5,73.7,16.1,74.6,15.2L78,11.6l3.5,3.5l9,8.9c2.5,-2.6,4,-4.2,4.2,-4.4L78.1,3.1C77,4.2,49.8,32.5,37.2,45.4C32.5,40.5,20.8,28.4,19.7,27.2L3.1,43.8c.2,.3,1.8,1.9,4.2,4.4Z" class="g0_1" />
<path d="M78.1,18.5C77,19.7,49.8,47.9,37.2,60.9C32.5,56,20.8,43.9,19.7,42.7l-9,9L3.1,59.3c1.1,1.1,23.7,24.6,34.1,35.3l.1,-.7c.1,-.8,.3,-1.7,.5,-2.6c.2,-.8,.4,-1.6,.6,-2.6C40,82.3,42.2,76.4,45.1,71.1C49.3,63.4,54.8,56.7,61.7,51.3c1.9,-1.5,4,-2.9,6,-4.2c.4,-.3,.8,-.5,1.2,-.7c2.9,-1.7,5.9,-3.3,9,-4.5c.9,-.4,1.7,-.7,2.6,-1c.9,-.4,1.8,-.7,2.7,-.9v-.1h.2l4.1,-1.3l1.2,2.7c3.5,-3.6,5.8,-5.9,6,-6.2L87.1,27.5Z" class="g0_1" />
<path d="M86.9,50.2c-.3,-.9,-.5,-1.8,-.9,-2.6c-.3,-.9,-.6,-1.7,-.9,-2.5c-.1,-.2,-.2,-.4,-.3,-.6c0,0,-.1,.1,-.2,.1c-.7,.2,-1.6,.5,-2.4,.8c-.8,.3,-1.6,.6,-2.4,.9c-2.9,1.2,-6.2,2.8,-9.5,4.9c-1.8,1.1,-3.7,2.4,-5.5,3.9c-8.6,6.7,-17,17.2,-21.2,33.1c-.2,.5,-.4,1.1,-.5,1.7c-.2,.8,-.4,1.6,-.5,2.4c-.1,.2,-.1,.3,-.1,.5c-.2,.6,-.3,1.3,-.4,1.9c.7,0,1.4,-.1,2,-.1c.3,-.1,.5,-.1,.8,-.1c.3,-.1,.6,-.1,.9,-.2c.3,-.7,.6,-1.3,.9,-2c.2,-.3,.4,-.7,.6,-1c.2,-.5,.5,-.9,.7,-1.4c4.1,-7.4,10.5,-15,20.2,-20.3c.1,-.1,.3,-.1,.4,-.2c1.2,-.7,2.5,-1.3,3.9,-1.9c2.3,-1,4.7,-1.8,7.3,-2.4c.8,-.3,1.6,-.4,2.4,-.6c.8,-.2,1.6,-.4,2.4,-.5c1.4,-.2,2.8,-.4,4.2,-.6c0,-4.6,-.7,-9,-1.9,-13.2Z" class="g1_1" />

</svg>
